<svg width="10" height="16" viewBox="0 0 10 16" fill="none" xmlns="http://www.w3.org/2000/svg">
<path d="M0.135575 4.35612L4.71891 0.189453C4.79964 0.116536 4.8986 0.0800778 5.00016 0.0800778C5.10172 0.0800778 5.20117 0.115885 5.28063 0.188307L9.86396 4.35497C10.0339 4.50977 10.0465 4.77279 9.89193 4.94206C9.7369 5.11378 9.47292 5.12435 9.30313 4.97055L5.41682 1.43945L5.41682 10.9134C5.41682 11.1437 5.23047 11.3066 5.02359 11.3066C4.81672 11.3066 4.58349 11.1436 4.58349 10.9134L4.58349 1.43945L0.698074 4.97331C0.528387 5.12711 0.264221 5.11654 0.109273 4.94482C-0.0467169 4.77279 -0.0336958 4.50977 0.135575 4.35612Z" fill="#3E3F48"/>
<path d="M9.86456 11.6439L5.28123 15.8105C5.2005 15.8835 5.10154 15.9199 4.99998 15.9199C4.89842 15.9199 4.79896 15.8841 4.71951 15.8117L0.136178 11.645C-0.0337957 11.4902 -0.0463998 11.2272 0.10821 11.0579C0.263236 10.8862 0.52722 10.8757 0.697012 11.0295L4.58331 14.5605V5.08659C4.58331 4.85628 4.76967 4.69336 4.97654 4.69336C5.18342 4.69336 5.41665 4.85638 5.41665 5.08659V14.5605L9.30206 11.0267C9.47175 10.8729 9.73592 10.8835 9.89087 11.0552C10.0469 11.2272 10.0338 11.4902 9.86456 11.6439Z" fill="#3E3F48"/>
</svg>
