<svg width="24" height="24" viewBox="0 0 24 24" fill="none" xmlns="http://www.w3.org/2000/svg">
<path d="M11.9653 22C9.77584 22 8.99694 21.5574 8.99694 20.5961V19.0508C8.40436 18.8018 7.85045 18.4832 7.34225 18.0973L6.0024 18.8699C5.8219 18.9755 5.61272 19.0267 5.4024 19.0267C3.96842 19.0267 2.42389 15.3989 2.42389 14.7845C2.42389 14.3607 2.65069 13.9509 3.03756 13.7271L4.37233 12.9568C4.36451 12.6289 4.34381 12.3125 4.34381 11.9648C4.34381 11.6172 4.36457 11.3348 4.40729 11.009L3.07155 10.2734C2.68522 10.0508 2.45865 9.64062 2.45865 9.21484C2.45865 8.72344 3.94225 4.96875 5.43522 4.96875C5.64682 4.96875 5.85787 5.02102 6.04147 5.12934L7.37545 5.90156C7.88326 5.51602 8.43795 5.19727 8.99655 4.94805V3.40273C8.99655 2.16934 10.4262 2 12.0005 2C13.5516 2 14.934 2.15949 14.934 3.40273V4.94805C15.5266 5.19707 16.0805 5.51562 16.5887 5.90156L17.9286 5.12891C18.1091 5.02332 18.3185 4.97215 18.529 4.97215C19.9536 4.97215 21.5071 8.58738 21.5071 9.21434C21.5071 9.63816 21.2803 10.0479 20.8934 10.2718L19.5587 11.0421C19.6014 11.368 19.6221 11.6843 19.6221 11.9979C19.6221 12.3116 19.6014 12.628 19.5587 12.9538L20.8942 13.7253C21.2807 13.948 21.5075 14.3577 21.5075 14.7819C21.5075 15.2737 20.0239 19.028 18.5305 19.028C18.3188 19.028 18.1075 18.9757 17.9247 18.8674L16.5891 18.0971C16.0805 18.4829 15.527 18.8014 14.9344 19.0506V20.5959C14.9692 21.5547 14.1919 22 11.9653 22ZM7.50436 16.5781C8.90748 17.782 9.54889 17.9203 10.2797 18.1797V20.5957C10.8309 20.6873 11.4055 20.7413 11.9891 20.7413C12.5731 20.7413 13.1661 20.6873 13.7544 20.5627L13.7171 18.1799C14.3449 17.9572 15.0913 17.7807 16.4925 16.5784L18.5867 17.7881C19.3202 16.9264 19.9058 15.9143 20.2816 14.7971L18.2136 13.6034C18.3208 13.0178 18.4034 12.61 18.4034 12.0772C18.4034 11.6495 18.3501 11.1409 18.2136 10.3952L20.3019 9.19008C19.9179 8.10609 19.3285 7.08187 18.5402 6.1932L16.4921 7.42016C15.089 6.21625 14.4476 6.07797 13.7167 5.81859V3.40273C13.1656 3.31117 12.591 3.25715 12.0074 3.25715C11.4234 3.25715 10.8304 3.31117 10.2421 3.4357L10.2794 5.81852C9.6528 6.04297 8.9067 6.18359 7.50436 7.42188L5.41178 6.21094C4.66998 7.08242 4.08053 8.10664 3.70514 9.23711L5.78483 10.3957C5.6778 10.9805 5.59498 11.3906 5.59498 11.8867C5.59498 12.3145 5.64826 12.823 5.78479 13.5688L3.69651 14.7738C4.08045 15.8578 4.66994 16.882 5.45823 17.7707L7.50436 16.5781ZM12.0005 15.7148C9.93248 15.7148 8.25045 14.0328 8.25045 11.9648C8.25045 9.89688 9.93405 8.21484 12.0005 8.21484C14.0669 8.21484 15.7505 9.89688 15.7505 11.9648C15.7505 14.0328 14.0669 15.7148 12.0005 15.7148ZM12.0005 9.46484C10.6215 9.46484 9.50045 10.5867 9.50045 11.9648C9.50045 13.343 10.6215 14.4648 12.0005 14.4648C13.3794 14.4648 14.5005 13.343 14.5005 11.9648C14.5005 10.5867 13.3794 9.46484 12.0005 9.46484Z" fill="#6B6C72"/>
</svg>
